# xmcd
#
# Track frame offsets:
#	150
#	18257
#	31907
#	46729
#	62543
#	79603
#	95302
#	109629
#	123455
#	138234
#	151771
#	165672
#	183207
#	200633
#	217755
#	235818
#	249824
#	265756
#	280076
#	294130
#	309256
#
# Disc length: 4374 seconds
#
# Revision: 0
# Processed by: cddbd v1.5.2PL0 Copyright (c) Steve Scherf et al.
# Submitted via: dBpowerAMP V4.0
#
DISCID=fd111415
DTITLE=Relber and Allan - Ricardo Maia
DYEAR=1900
DGENRE=
TTITLE0=Tentativas em vão
TTITLE1=Sigo Sempre
TTITLE2=Valeu
TTITLE3=Não Tomo Jeito ( sem céu e sem chão )
TTITLE4=Te Amo e Não Te Quero
TTITLE5=Nosso Amor Já Era
TTITLE6=Chega pra cá
TTITLE7=Labirinto
TTITLE8=Dessa Vez Eu Me Rendo
TTITLE9=Dou o Braço a Torcer
TTITLE10=Agora Quer Amor
TTITLE11=Só Mais Uma Vez
TTITLE12=Sai Dessa Vida
TTITLE13=Amor Volta Pra Mim
TTITLE14=Que Loro
TTITLE15=Cartaz
TTITLE16=Vontade Dividida
TTITLE17=Pela Porta da Frente
TTITLE18=Escolta de Vagalumes
TTITLE19=Simbora Beber
TTITLE20=Pout-Pourri
EXTD=
EXTT0=
EXTT1=
EXTT2=
EXTT3=
EXTT4=
EXTT5=
EXTT6=
EXTT7=
EXTT8=
EXTT9=
EXTT10=
EXTT11=
EXTT12=
EXTT13=
EXTT14=
EXTT15=
EXTT16=
EXTT17=
EXTT18=
EXTT19=
EXTT20=
PLAYORDER=
